Coordinates
version=1
nRows=28
nColumns=33
inDegrees=yes

Units are S.I. units (second, meters, Newtons, ...)
Angles are in degrees.

endheader
time	ground_thorax_rot_x	ground_thorax_rot_y	ground_thorax_rot_z	ground_thorax_tx	ground_thorax_ty	ground_thorax_tz	clav_prot_r	clav_elev_r	scapula_abduction_r	scapula_elevation_r	scapula_upward_rot_r	scapula_winging_r	shoulder_elv_r	plane_of_elev_r	axial_rot_r	elbow_flexion_r	pro_sup_r	wrist_flex_r	wrist_dev_r	clav_prot_l	clav_elev_l	scapula_abduction_l	scapula_elevation_l	scapula_upward_rot_l	scapula_winging_l	shoulder_elv_l	plane_of_elev_l	axial_rot_l	elbow_flexion_l	pro_sup_l	wrist_flex_l	wrist_dev_l	
5.6900	90.000000	-90.000000	-90.000000	-226.588841	866.253476	-5.584983	-45.000000	-1.531740	-30.546218	9.834600	-45.000000	1692.613064	-2047.940324	29.870557	180.000000	370.984811	62.351871	24.565335	10.936856	19.355569	37.198496	-45.000000	-45.000000	19.558592	-2139.626805	-772.328244	141.557390	-1.130872	371.270541	41.674896	8.027519	-22.793984	
5.7000	90.000000	-90.000000	-90.000000	-227.237085	867.883383	-5.546870	-45.000000	-1.897718	-30.543733	9.624878	-45.000000	1692.536542	-2047.870429	29.881372	180.000000	371.018513	61.882504	24.590567	10.943468	19.302028	37.191618	-45.000000	-45.000000	19.651076	-2139.827362	-772.298102	141.449744	-1.639543	371.234943	40.615623	8.065469	-22.778220	
5.7100	90.000000	-90.000000	-90.000000	-227.794379	869.449235	-5.506030	-45.000000	-2.216439	-30.562896	9.434292	-45.000000	1692.484499	-2047.801077	29.874840	180.000000	371.049314	61.443198	24.605508	10.951030	19.257644	37.179180	-45.000000	-45.000000	19.760351	-2139.999190	-772.290124	141.319327	-2.123033	371.211945	39.600469	8.083377	-22.751418	
5.7200	90.000000	-90.000000	-90.000000	-228.153386	870.873507	-5.457026	-45.000000	-2.451833	-30.600974	9.256449	-45.000000	1692.421836	-2047.746773	29.872802	180.000000	371.076039	61.082148	24.627067	10.964854	19.218520	37.184163	-45.000000	-45.000000	19.821802	-2140.173994	-772.261716	141.234912	-2.485839	371.178060	38.702947	8.136854	-22.737617	
5.7300	90.000000	-90.000000	-90.000000	-228.303855	872.152515	-5.400760	-45.000000	-2.615438	-30.653008	9.102313	-45.000000	1692.371443	-2047.715054	29.864436	180.000000	371.116726	60.794547	24.648196	10.976594	19.189562	37.196920	-45.000000	-45.000000	19.862503	-2140.326974	-772.235258	141.165784	-2.756564	371.148422	37.905214	8.196804	-22.726587	
5.7400	90.000000	-90.000000	-90.000000	-228.222826	873.274560	-5.336905	-45.000000	-2.727493	-30.716975	8.965156	-45.000000	1692.316802	-2047.705332	29.857551	180.000000	371.169295	60.593681	24.678289	10.987754	19.170279	37.220448	-45.000000	-45.000000	19.868033	-2140.465324	-772.201366	141.128149	-2.948338	371.117519	37.215073	8.264864	-22.720265	
5.7500	90.000000	-90.000000	-90.000000	-227.915446	874.250918	-5.265899	-45.000000	-2.810717	-30.786784	8.839471	-45.000000	1692.265519	-2047.713643	29.843456	180.000000	371.244099	60.484745	24.711617	10.990539	19.164459	37.247632	-45.000000	-45.000000	19.855766	-2140.574045	-772.174781	141.097459	-3.076893	371.103787	36.624172	8.320914	-22.716289	
5.7600	90.000000	-90.000000	-90.000000	-227.400377	875.104481	-5.188014	-45.000000	-2.891984	-30.854433	8.716610	-45.000000	1692.198860	-2047.741763	29.830737	180.000000	371.338413	60.475077	24.760752	10.986583	19.171834	37.276962	-45.000000	-45.000000	19.830218	-2140.659369	-772.161789	141.081867	-3.167831	371.098790	36.126013	8.357558	-22.710617	
5.7700	90.000000	-90.000000	-90.000000	-226.697387	875.860470	-5.102516	-45.000000	-3.000371	-30.921046	8.584197	-45.000000	1692.119104	-2047.775267	29.815801	180.000000	371.457278	60.574188	24.818847	10.967312	19.189755	37.312049	-45.000000	-45.000000	19.769901	-2140.726664	-772.139211	141.078738	-3.238340	371.112789	35.727896	8.383132	-22.714456	
5.7800	90.000000	-90.000000	-90.000000	-225.826357	876.544560	-5.008490	-45.000000	-3.126845	-31.001331	8.442814	-45.000000	1692.028416	-2047.806801	29.807700	180.000000	371.598213	60.793284	24.898676	10.934957	19.221480	37.348207	-45.000000	-45.000000	19.701343	-2140.777165	-772.134571	141.090608	-3.283084	371.130895	35.435608	8.388755	-22.717257	
5.7900	90.000000	-90.000000	-90.000000	-224.806824	877.182532	-4.904910	-45.000000	-3.272289	-31.097511	8.294227	-45.000000	1691.946454	-2047.834394	29.796002	180.000000	371.768085	61.131848	24.989716	10.881250	19.266583	37.383511	-45.000000	-45.000000	19.624643	-2140.807776	-772.143835	141.102755	-3.306170	371.165268	35.251327	8.372488	-22.722175	
5.8000	90.000000	-90.000000	-90.000000	-223.656989	877.798564	-4.791275	-45.000000	-3.425084	-31.205879	8.144125	-45.000000	1691.866180	-2047.872158	29.791435	180.000000	371.962044	61.581141	25.105117	10.811831	19.327375	37.412518	-45.000000	-45.000000	19.564393	-2140.819117	-772.191736	141.117594	-3.301355	371.199549	35.168706	8.328428	-22.719340	
5.8100	90.000000	-90.000000	-90.000000	-222.393220	878.415814	-4.667384	-45.000000	-3.603672	-31.322391	7.985619	-45.000000	1691.790015	-2047.915240	29.781338	180.000000	372.168916	62.124169	25.229487	10.723248	19.397290	37.443013	-45.000000	-45.000000	19.481039	-2140.825883	-772.236188	141.140775	-3.291303	371.243363	35.187771	8.275892	-22.724137	
5.8200	90.000000	-90.000000	-90.000000	-221.029453	879.055788	-4.533614	-45.000000	-3.794147	-31.449096	7.817438	-45.000000	1691.708817	-2047.967363	29.772273	180.000000	372.376580	62.741607	25.369697	10.623898	19.480116	37.468228	-45.000000	-45.000000	19.405330	-2140.824389	-772.306177	141.165511	-3.263397	371.288668	35.299949	8.205556	-22.726813	
5.8300	90.000000	-90.000000	-90.000000	-219.576744	879.739720	-4.390388	-45.000000	-4.009849	-31.576205	7.632043	-45.000000	1691.618443	-2048.030783	29.751064	180.000000	372.572338	63.408710	25.509892	10.513757	19.569996	37.494832	-45.000000	-45.000000	19.306969	-2140.827541	-772.369389	141.194242	-3.233693	371.345206	35.498520	8.130716	-22.738509	
5.8400	90.000000	-90.000000	-90.000000	-218.042209	880.487275	-4.238729	-45.000000	-4.244114	-31.703304	7.428724	-45.000000	1691.513613	-2048.111622	29.725258	180.000000	372.752602	64.101655	25.651626	10.398392	19.667988	37.521387	-45.000000	-45.000000	19.200687	-2140.834033	-772.439540	141.223637	-3.196059	371.405911	35.770867	8.048789	-22.753500	
5.8500	90.000000	-90.000000	-90.000000	-216.427813	881.316432	-4.080193	-45.000000	-4.503744	-31.828476	7.205584	-45.000000	1691.398381	-2048.205753	29.685065	180.000000	372.917925	64.799002	25.781281	10.275231	19.769187	37.555234	-45.000000	-45.000000	19.063830	-2140.852100	-772.492904	141.257535	-3.161076	371.475556	36.105680	7.969853	-22.778528	
5.8600	90.000000	-90.000000	-90.000000	-214.730577	882.241327	-3.917403	-45.000000	-4.775154	-31.966831	6.971941	-45.000000	1691.289867	-2048.315668	29.636470	180.000000	373.078873	65.486018	25.900564	10.144964	19.876263	37.593651	-45.000000	-45.000000	18.919921	-2140.875683	-772.553189	141.294603	-3.115008	371.547350	36.487968	7.884291	-22.803151	
5.8700	90.000000	-90.000000	-90.000000	-212.942736	883.272090	-3.753613	-45.000000	-5.056778	-32.115639	6.729677	-45.000000	1691.191643	-2048.443646	29.566651	180.000000	373.234222	66.153320	26.000872	10.007431	19.989337	37.636196	-45.000000	-45.000000	18.769576	-2140.906268	-772.621465	141.333930	-3.051093	371.621313	36.906694	7.788236	-22.824260	
5.8800	90.000000	-90.000000	-90.000000	-211.053784	884.413104	-3.592615	-45.000000	-5.314427	-32.294301	6.501307	-45.000000	1691.155438	-2048.591207	29.446773	180.000000	373.374405	66.801325	26.065473	9.861290	20.108026	37.688185	-45.000000	-45.000000	18.616888	-2140.940793	-772.709033	141.379527	-2.959483	371.699041	37.358698	7.680656	-22.839906	
5.8900	90.000000	-90.000000	-90.000000	-209.052020	885.663067	-3.437889	-45.000000	-5.555564	-32.495920	6.285309	-45.000000	1691.169909	-2048.760629	29.274449	180.000000	373.505005	67.429240	26.091970	9.705008	20.232940	37.748014	-45.000000	-45.000000	18.461387	-2140.979972	-772.813946	141.432215	-2.829869	371.779610	37.842243	7.560934	-22.849565	
5.9000	90.000000	-90.000000	-90.000000	-206.927671	887.014167	-3.292142	-45.000000	-5.774955	-32.725609	6.084524	-45.000000	1691.236683	-2048.953629	29.057660	180.000000	373.632040	68.036199	26.085736	9.540212	20.364784	37.815264	-45.000000	-45.000000	18.301057	-2141.020841	-772.936973	141.496263	-2.652256	371.863514	38.355922	7.429833	-22.853764	
5.9100	90.000000	-90.000000	-90.000000	-204.673794	888.452817	-3.156761	-45.000000	-6.000288	-32.963612	5.881975	-45.000000	1691.301753	-2049.173174	28.828813	180.000000	373.770082	68.614272	26.065295	9.370913	20.504629	37.884807	-45.000000	-45.000000	18.128959	-2141.065383	-773.067580	141.570766	-2.418696	371.947932	38.893642	7.290851	-22.854977	
5.9200	90.000000	-90.000000	-90.000000	-202.287571	889.959503	-3.032000	-45.000000	-6.220005	-33.212324	5.683035	-45.000000	1691.368775	-2049.417614	28.594044	180.000000	373.919822	69.159351	26.036426	9.200637	20.652656	37.957441	-45.000000	-45.000000	17.942904	-2141.110742	-773.207266	141.659123	-2.122318	372.034727	39.447902	7.147048	-22.855224	
5.9300	90.000000	-90.000000	-90.000000	-199.769554	891.509707	-2.917296	-45.000000	-6.458725	-33.452642	5.472890	-45.000000	1691.385402	-2049.690078	28.385565	180.000000	374.092482	69.662800	26.017671	9.033987	20.809185	38.028932	-45.000000	-45.000000	17.737671	-2141.156585	-773.344392	141.760826	-1.761940	372.119100	40.006583	7.004088	-22.857233	
5.9400	90.000000	-90.000000	-90.000000	-197.123232	893.074672	-2.811873	-45.000000	-6.698428	-33.689895	5.261051	-45.000000	1691.365488	-2049.988716	28.200350	180.000000	374.282030	70.121280	26.008249	8.872979	20.973695	38.100962	-45.000000	-45.000000	17.513590	-2141.199805	-773.481463	141.877528	-1.337669	372.202285	40.555476	6.865574	-22.862360	
5.9500	90.000000	-90.000000	-90.000000	-194.353274	894.622856	-2.715194	-45.000000	-6.932296	-33.922776	5.051876	-45.000000	1691.313849	-2050.311598	28.032473	180.000000	374.483697	70.533072	26.002308	8.716492	21.145492	38.173807	-45.000000	-45.000000	17.273655	-2141.239430	-773.618389	142.006914	-0.852852	372.280684	41.079840	6.735484	-22.870902	
5.9600	90.000000	-90.000000	-90.000000	-191.464591	896.120963	-2.627295	-45.000000	-7.137187	-34.162937	4.865673	-45.000000	1691.271991	-2050.655062	27.855688	180.000000	374.682763	70.902114	25.979682	8.560797	21.323630	38.249999	-45.000000	-45.000000	17.025034	-2141.272891	-773.764172	142.148136	-0.310975	372.358254	41.565443	6.614611	-22.882233	
